<?xml version="1.0" encoding="utf-8"?>
<!-- Generator: Adobe Illustrator 26.1.0, SVG Export Plug-In . SVG Version: 6.00 Build 0)  -->
<svg version="1.1" id="Layer_1" xmlns="http://www.w3.org/2000/svg" xmlns:xlink="http://www.w3.org/1999/xlink" x="0px" y="0px"
	 viewBox="0 0 764.09 411.73" style="enable-background:new 0 0 764.09 411.73;" xml:space="preserve">
<style type="text/css">
	.st0{fill:#FB4E0B;}
</style>
<g>
	<path class="st0" d="M442.43,308.8h45.96l-74.32-102.93l74.32-102.93h-45.96l-52.25,72.95l-52.25-72.95h-45.96l74.32,102.93
		L291.97,308.8h45.96l52.25-72.95L442.43,308.8z M274.99,308.8v-35.65H140.27v-49.53h134.72v-35.64H140.27v-49.55h134.72v-35.49
		H135.47c-17.97,0-32.53,14.57-32.53,32.53v140.8c0,17.97,14.57,32.53,32.53,32.53H274.99z M537.69,308.8h123.47v-37.72H548V102.93
		h-42.85v173.33C505.15,294.23,519.72,308.8,537.69,308.8z"/>
</g>
</svg>
